<svg width="128" height="128" viewBox="0 0 128 128" fill="none" xmlns="http://www.w3.org/2000/svg">
<rect width="128" height="128" fill="#333333"/>
<path d="M69.372 16L107.172 16C108.45 16.0053 109.675 16.515 110.579 17.4185C111.483 18.3219 111.994 19.5458 112 20.824L112 57.544L111.716 57.544C88.58 57.544 69.7 38.944 69.372 16ZM38.948 16L55.128 16C55.46 46.992 80.82 72.068 112 72.208L112 87.824L111.716 87.824C71.784 87.824 39.232 55.648 38.948 16ZM20.828 16L24.708 16C24.984 63.692 64.02 102.348 112 102.488L112 107.128C112 109.776 109.824 111.952 107.172 111.952L76.612 111.952C49.068 102.016 26.972 80.82 16 53.944L16 20.78C16 18.128 18.176 16 20.828 16ZM45.148 111.952L20.78 111.952C20.1519 111.955 19.5294 111.833 18.9486 111.594C18.3677 111.355 17.8399 111.003 17.3956 110.559C16.9512 110.115 16.5991 109.588 16.3596 109.007C16.1201 108.426 15.9979 107.804 16 107.176L16 83.52C19.64 88.488 24.184 94.12 28.632 98.568C33.648 103.536 39.512 108.028 45.144 111.956L45.148 111.952Z" fill="white"/>
</svg>
