<svg width="96" height="96" viewBox="0 0 96 96" fill="none" xmlns="http://www.w3.org/2000/svg">
<path d="M42.628 95.956H4.828C3.54985 95.9507 2.32548 95.4409 1.42131 94.5375C0.517134 93.6341 0.00631674 92.4102 0 91.132L0 54.412H0.284C23.42 54.412 42.3 73.012 42.628 95.956ZM73.052 95.956H56.872C56.54 64.964 31.18 39.888 0 39.748V24.132H0.284C40.216 24.132 72.768 56.308 73.052 95.956ZM91.172 95.956H87.292C87.016 48.264 47.98 9.608 0 9.468V4.828C0 2.18 2.176 0.004 4.828 0.004H35.388C62.932 9.94 85.028 31.136 96 58.012V91.176C96 93.828 93.824 95.956 91.172 95.956ZM66.852 0.004H91.22C91.8481 0.00135724 92.4706 0.123059 93.0514 0.36209C93.6323 0.601121 94.1601 0.952754 94.6044 1.39672C95.0488 1.84069 95.4009 2.36821 95.6404 2.94888C95.8799 3.52954 96.0021 4.15188 96 4.78V28.436C92.36 23.468 87.816 17.836 83.368 13.388C78.352 8.42 72.488 3.928 66.856 0L66.852 0.004Z" fill="white"/>
</svg>
